<svg width="622" height="197" viewBox="0 0 622 197" fill="none" xmlns="http://www.w3.org/2000/svg">
<path d="M241.178 88.776C241.178 91.7853 240.487 94.548 239.106 97.064C237.725 99.5307 235.603 101.529 232.742 103.058C229.881 104.587 226.329 105.352 222.086 105.352H214.242V124H201.588V72.052H222.086C226.23 72.052 229.733 72.7673 232.594 74.198C235.455 75.6287 237.601 77.602 239.032 80.118C240.463 82.634 241.178 85.52 241.178 88.776ZM221.124 95.288C223.541 95.288 225.342 94.7207 226.526 93.586C227.71 92.4513 228.302 90.848 228.302 88.776C228.302 86.704 227.71 85.1007 226.526 83.966C225.342 82.8313 223.541 82.264 221.124 82.264H214.242V95.288H221.124ZM245.25 103.28C245.25 99.0373 246.039 95.3127 247.618 92.106C249.246 88.8993 251.441 86.4327 254.204 84.706C256.966 82.9793 260.05 82.116 263.454 82.116C266.364 82.116 268.905 82.708 271.076 83.892C273.296 85.076 274.998 86.63 276.182 88.554V82.708H288.836V124H276.182V118.154C274.948 120.078 273.222 121.632 271.002 122.816C268.831 124 266.29 124.592 263.38 124.592C260.025 124.592 256.966 123.729 254.204 122.002C251.441 120.226 249.246 117.735 247.618 114.528C246.039 111.272 245.25 107.523 245.25 103.28ZM276.182 103.354C276.182 100.197 275.294 97.7053 273.518 95.88C271.791 94.0547 269.67 93.142 267.154 93.142C264.638 93.142 262.492 94.0547 260.716 95.88C258.989 97.656 258.126 100.123 258.126 103.28C258.126 106.437 258.989 108.953 260.716 110.828C262.492 112.653 264.638 113.566 267.154 113.566C269.67 113.566 271.791 112.653 273.518 110.828C275.294 109.003 276.182 106.511 276.182 103.354ZM304.354 78.416C302.134 78.416 300.309 77.7747 298.878 76.492C297.497 75.16 296.806 73.532 296.806 71.608C296.806 69.6347 297.497 68.0067 298.878 66.724C300.309 65.392 302.134 64.726 304.354 64.726C306.525 64.726 308.301 65.392 309.682 66.724C311.113 68.0067 311.828 69.6347 311.828 71.608C311.828 73.532 311.113 75.16 309.682 76.492C308.301 77.7747 306.525 78.416 304.354 78.416ZM310.644 82.708V124H297.99V82.708H310.644ZM332.469 89.59C333.949 87.3207 335.799 85.5447 338.019 84.262C340.239 82.93 342.705 82.264 345.419 82.264V95.658H341.941C338.783 95.658 336.415 96.3487 334.837 97.73C333.258 99.062 332.469 101.43 332.469 104.834V124H319.815V82.708H332.469V89.59ZM383.805 114.824H364.417L361.309 124H348.063L366.859 72.052H381.511L400.307 124H386.913L383.805 114.824ZM380.549 105.056L374.111 86.038L367.747 105.056H380.549ZM422.825 124.592C419.224 124.592 416.017 123.975 413.205 122.742C410.393 121.509 408.173 119.831 406.545 117.71C404.917 115.539 404.005 113.122 403.807 110.458H416.313C416.461 111.889 417.127 113.048 418.311 113.936C419.495 114.824 420.951 115.268 422.677 115.268C424.256 115.268 425.465 114.972 426.303 114.38C427.191 113.739 427.635 112.925 427.635 111.938C427.635 110.754 427.019 109.891 425.785 109.348C424.552 108.756 422.554 108.115 419.791 107.424C416.831 106.733 414.365 106.018 412.391 105.278C410.418 104.489 408.716 103.28 407.285 101.652C405.855 99.9747 405.139 97.73 405.139 94.918C405.139 92.55 405.781 90.404 407.063 88.48C408.395 86.5067 410.319 84.9527 412.835 83.818C415.401 82.6833 418.435 82.116 421.937 82.116C427.117 82.116 431.187 83.3987 434.147 85.964C437.157 88.5293 438.883 91.9333 439.327 96.176H427.635C427.438 94.7453 426.797 93.6107 425.711 92.772C424.675 91.9333 423.294 91.514 421.567 91.514C420.087 91.514 418.953 91.81 418.163 92.402C417.374 92.9447 416.979 93.7093 416.979 94.696C416.979 95.88 417.596 96.768 418.829 97.36C420.112 97.952 422.085 98.544 424.749 99.136C427.808 99.9253 430.299 100.715 432.223 101.504C434.147 102.244 435.825 103.477 437.255 105.204C438.735 106.881 439.5 109.151 439.549 112.012C439.549 114.429 438.859 116.6 437.477 118.524C436.145 120.399 434.197 121.879 431.631 122.964C429.115 124.049 426.18 124.592 422.825 124.592ZM464.089 124.592C460.488 124.592 457.281 123.975 454.469 122.742C451.657 121.509 449.437 119.831 447.809 117.71C446.181 115.539 445.268 113.122 445.071 110.458H457.577C457.725 111.889 458.391 113.048 459.575 113.936C460.759 114.824 462.214 115.268 463.941 115.268C465.52 115.268 466.728 114.972 467.567 114.38C468.455 113.739 468.899 112.925 468.899 111.938C468.899 110.754 468.282 109.891 467.049 109.348C465.816 108.756 463.818 108.115 461.055 107.424C458.095 106.733 455.628 106.018 453.655 105.278C451.682 104.489 449.98 103.28 448.549 101.652C447.118 99.9747 446.403 97.73 446.403 94.918C446.403 92.55 447.044 90.404 448.327 88.48C449.659 86.5067 451.583 84.9527 454.099 83.818C456.664 82.6833 459.698 82.116 463.201 82.116C468.381 82.116 472.451 83.3987 475.411 85.964C478.42 88.5293 480.147 91.9333 480.591 96.176H468.899C468.702 94.7453 468.06 93.6107 466.975 92.772C465.939 91.9333 464.558 91.514 462.831 91.514C461.351 91.514 460.216 91.81 459.427 92.402C458.638 92.9447 458.243 93.7093 458.243 94.696C458.243 95.88 458.86 96.768 460.093 97.36C461.376 97.952 463.349 98.544 466.013 99.136C469.072 99.9253 471.563 100.715 473.487 101.504C475.411 102.244 477.088 103.477 478.519 105.204C479.999 106.881 480.764 109.151 480.813 112.012C480.813 114.429 480.122 116.6 478.741 118.524C477.409 120.399 475.46 121.879 472.895 122.964C470.379 124.049 467.444 124.592 464.089 124.592ZM494.919 78.416C492.699 78.416 490.873 77.7747 489.443 76.492C488.061 75.16 487.371 73.532 487.371 71.608C487.371 69.6347 488.061 68.0067 489.443 66.724C490.873 65.392 492.699 64.726 494.919 64.726C497.089 64.726 498.865 65.392 500.247 66.724C501.677 68.0067 502.393 69.6347 502.393 71.608C502.393 73.532 501.677 75.16 500.247 76.492C498.865 77.7747 497.089 78.416 494.919 78.416ZM501.209 82.708V124H488.555V82.708H501.209ZM527.177 124.592C523.576 124.592 520.369 123.975 517.557 122.742C514.745 121.509 512.525 119.831 510.897 117.71C509.269 115.539 508.356 113.122 508.159 110.458H520.665C520.813 111.889 521.479 113.048 522.663 113.936C523.847 114.824 525.302 115.268 527.029 115.268C528.608 115.268 529.816 114.972 530.655 114.38C531.543 113.739 531.987 112.925 531.987 111.938C531.987 110.754 531.37 109.891 530.137 109.348C528.904 108.756 526.906 108.115 524.143 107.424C521.183 106.733 518.716 106.018 516.743 105.278C514.77 104.489 513.068 103.28 511.637 101.652C510.206 99.9747 509.491 97.73 509.491 94.918C509.491 92.55 510.132 90.404 511.415 88.48C512.747 86.5067 514.671 84.9527 517.187 83.818C519.752 82.6833 522.786 82.116 526.289 82.116C531.469 82.116 535.539 83.3987 538.499 85.964C541.508 88.5293 543.235 91.9333 543.679 96.176H531.987C531.79 94.7453 531.148 93.6107 530.063 92.772C529.027 91.9333 527.646 91.514 525.919 91.514C524.439 91.514 523.304 91.81 522.515 92.402C521.726 92.9447 521.331 93.7093 521.331 94.696C521.331 95.88 521.948 96.768 523.181 97.36C524.464 97.952 526.437 98.544 529.101 99.136C532.16 99.9253 534.651 100.715 536.575 101.504C538.499 102.244 540.176 103.477 541.607 105.204C543.087 106.881 543.852 109.151 543.901 112.012C543.901 114.429 543.21 116.6 541.829 118.524C540.497 120.399 538.548 121.879 535.983 122.964C533.467 124.049 530.532 124.592 527.177 124.592ZM574.657 113.27V124H568.219C563.631 124 560.054 122.89 557.489 120.67C554.923 118.401 553.641 114.725 553.641 109.644V93.216H548.609V82.708H553.641V72.644H566.295V82.708H574.583V93.216H566.295V109.792C566.295 111.025 566.591 111.913 567.183 112.456C567.775 112.999 568.761 113.27 570.143 113.27H574.657Z" fill="#525252"/>
<path d="M106.215 126.211C104.435 128 102.203 129.393 99.6238 130.192C91.1927 132.804 82.2401 128.088 79.6276 119.656C77.0151 111.225 81.732 102.273 90.1631 99.6602C97.8326 97.2837 105.934 100.972 109.301 108.004C111.418 110.829 114.775 112.945 117.39 107.486C120.356 99.8766 126.637 93.6419 135.044 91.0368C149.688 86.4993 165.237 94.6918 169.774 109.335C174.312 123.979 166.119 139.528 151.476 144.066C138.472 148.095 124.755 142.086 118.668 130.436C117.151 127.532 112.522 121.911 106.215 126.211Z" fill="#8B5CF6"/>
<path d="M60.6297 69.5212C59.0209 58.3851 63.9222 46.7523 74.0969 40.1878C87.9537 31.2477 106.344 35.0934 115.173 48.7775C124.001 62.4616 119.925 80.8022 106.069 89.7424C98.7903 94.4382 90.2613 95.6065 82.5241 93.6746C77.4724 92.896 68.2872 91.9284 73.8951 106.961C75.4914 113.611 74.1772 120.427 70.6691 125.942C68.1148 130.707 71.408 131.965 74.5584 131.966C81.3992 130.615 88.3259 134.408 90.6559 141.124C93.2172 148.506 89.2537 156.625 81.8031 159.258C74.3525 161.891 66.2361 158.04 63.6747 150.658C62.8912 148.399 62.9738 146.3 62.897 144C62.6708 137.229 56.3534 136.786 53.4626 137.254C41.8617 139.132 30.3031 132.583 26.3527 121.196C21.904 108.374 28.788 94.2722 41.7286 89.6996C45.718 88.29 49.8174 87.9505 53.7101 88.5311C61.9843 88.4373 63.132 83.7396 60.9917 71.5276C60.8566 70.9047 60.7424 70.2792 60.6489 69.652C60.6407 69.6087 60.6325 69.5654 60.6242 69.522L60.6297 69.5212Z" fill="#525252"/>
</svg>
